<svg width="15" height="17" viewBox="0 0 15 17" fill="none" xmlns="http://www.w3.org/2000/svg">
<path fill-rule="evenodd" clip-rule="evenodd" d="M5.46188 0.078966C3.52619 0.394125 1.47382 1.94661 0.627369 3.73594C-0.779916 6.71077 0.248078 10.2797 3.03283 12.0863C4.80116 13.2334 7.32388 13.4228 9.23829 12.5521L10.1919 12.1186L10.8443 12.9311C12.1698 14.5815 13.9888 16.5292 14.2745 16.6039C14.4363 16.6462 14.6823 16.598 14.8208 16.4965C15.2996 16.1464 14.8595 15.3411 13.0088 13.1814L11.2865 11.1715L11.8497 10.4309C14.0879 7.48817 13.2557 2.9998 10.1031 1.00968C8.79979 0.186963 7.00698 -0.172495 5.46188 0.078966ZM8.68252 1.50826C9.83589 1.94169 10.9748 3.01471 11.5748 4.2335C12.0097 5.11688 12.0488 5.31014 12.0488 6.57469C12.0488 7.76048 11.996 8.0642 11.671 8.74924C11.1243 9.90115 10.2301 10.8359 9.18197 11.3511C7.42015 12.2173 5.7255 12.2338 4.02202 11.4017C1.38494 10.1134 0.241274 6.73248 1.55793 4.11668C2.20027 2.84055 3.79532 1.59671 5.26181 1.22842C6.09567 1.01894 7.73763 1.15329 8.68252 1.50826Z" fill="#747070"/>
</svg>
