<svg width="18" height="16" viewBox="0 0 18 16" fill="none" xmlns="http://www.w3.org/2000/svg">
<path fill-rule="evenodd" clip-rule="evenodd" d="M4.62769 0.0581428C3.5452 0.22397 2.34389 0.840934 1.56774 1.62955C-0.0977638 3.32192 -0.48558 5.99959 0.642297 8.01955C1.14472 8.91932 1.3862 9.14315 5.00547 12.0641C6.96071 13.642 8.65308 14.9935 8.76636 15.0674C8.93551 15.1777 9.00554 15.1865 9.15831 15.1168C9.26067 15.0703 10.9724 13.7169 12.9622 12.1094C16.8369 8.97902 16.9891 8.83327 17.4984 7.76384C17.8796 6.96348 17.9996 6.40718 18 5.43916C18.0004 4.14826 17.684 3.18982 16.9111 2.14106C16.2383 1.22809 15.0142 0.427952 13.8739 0.155779C13.2008 -0.00495571 11.9693 -0.00628411 11.3043 0.152901C10.6992 0.297843 9.87343 0.675623 9.38096 1.03296L9.02067 1.29428L8.60607 1.01362C7.39812 0.196222 5.96818 -0.147241 4.62769 0.0581428ZM6.49695 1.0492C7.14211 1.21318 7.91641 1.61634 8.40127 2.04062C8.65773 2.26504 8.89728 2.41338 9.00318 2.41338C9.10909 2.41338 9.34864 2.26504 9.60509 2.04062C10.714 1.07023 12.2633 0.710825 13.7255 1.08477C15.2918 1.48535 16.568 2.77514 16.9724 4.36611C17.1148 4.9264 17.114 5.93059 16.9708 6.53855C16.8358 7.11116 16.4271 7.90952 16.0491 8.33896C15.802 8.61962 9.20945 14.0012 9.0403 14.0603C8.93927 14.0955 2.15644 8.59091 1.90109 8.26641C0.860965 6.94452 0.631596 5.112 1.31498 3.58428C1.85866 2.36895 3.06358 1.36919 4.364 1.05436C4.94333 0.914143 5.95608 0.911707 6.49695 1.0492Z" fill="#747070"/>
</svg>
